<svg width="17" height="12" viewBox="0 0 17 12" fill="none" xmlns="http://www.w3.org/2000/svg">
<path d="M4.87565 11.2082L0.292318 6.62484C0.208984 6.5415 0.143012 6.44428 0.094401 6.33317C0.0457899 6.22206 0.0214844 6.11095 0.0214844 5.99984C0.0214844 5.88873 0.0457899 5.77762 0.094401 5.6665C0.143012 5.55539 0.208984 5.45817 0.292318 5.37484L4.89648 0.791504C5.06315 0.624837 5.26454 0.541504 5.50065 0.541504C5.73676 0.541504 5.93815 0.624837 6.10482 0.791504C6.27148 0.958171 6.35482 1.15956 6.35482 1.39567C6.35482 1.63178 6.27148 1.83317 6.10482 1.99984L3.00065 5.12484H15.459C15.6951 5.12484 15.9 5.21164 16.0736 5.38525C16.2472 5.55887 16.334 5.76373 16.334 5.99984C16.334 6.23595 16.2472 6.44081 16.0736 6.61442C15.9 6.78803 15.6951 6.87484 15.459 6.87484H3.00065L6.10482 9.99984C6.27148 10.1665 6.35482 10.3679 6.35482 10.604C6.35482 10.8401 6.27148 11.0415 6.10482 11.2082C5.93815 11.3748 5.73329 11.4582 5.49023 11.4582C5.24718 11.4582 5.04232 11.3748 4.87565 11.2082Z" fill="#232323"/>
</svg>
