<svg width="17" height="12" viewBox="0 0 17 12" fill="none" xmlns="http://www.w3.org/2000/svg">
<path d="M10.8952 11.2082C10.7285 11.0415 10.6452 10.8401 10.6452 10.604C10.6452 10.3679 10.7285 10.1665 10.8952 9.99984L13.9993 6.87484H1.54102C1.3049 6.87484 1.10004 6.78803 0.926432 6.61442C0.752821 6.44081 0.666016 6.23595 0.666016 5.99984C0.666016 5.76373 0.752821 5.55887 0.926432 5.38525C1.10004 5.21164 1.3049 5.12484 1.54102 5.12484H13.9993L10.8952 1.99984C10.7285 1.83317 10.6452 1.63178 10.6452 1.39567C10.6452 1.15956 10.7285 0.958171 10.8952 0.791504C11.0618 0.624837 11.2632 0.541504 11.4993 0.541504C11.7355 0.541504 11.9368 0.624837 12.1035 0.791504L16.7077 5.37484C16.791 5.45817 16.857 5.55539 16.9056 5.6665C16.9542 5.77762 16.9785 5.88873 16.9785 5.99984C16.9785 6.11095 16.9542 6.22206 16.9056 6.33317C16.857 6.44428 16.791 6.5415 16.7077 6.62484L12.1035 11.229C11.9368 11.3957 11.7355 11.4755 11.4993 11.4686C11.2632 11.4616 11.0618 11.3748 10.8952 11.2082Z" fill="#232323"/>
</svg>
