<svg
    width="12"
    height="12"
    viewBox="0 0 12 12"
    fill="none"
    xmlns="http://www.w3.org/2000/svg"
>
    <path
    d="M5.99935 11.8332C5.76324 11.8332 5.55838 11.7464 5.38477 11.5728C5.21115 11.3991 5.12435 11.1965 5.12435 10.9647V6.87484H1.03449C0.802731 6.87484 0.600043 6.78803 0.426432 6.61442C0.252821 6.44081 0.166016 6.23595 0.166016 5.99984C0.166016 5.76373 0.252821 5.55887 0.426432 5.38525C0.600043 5.21164 0.802731 5.12484 1.03449 5.12484H5.12435V1.03498C5.12435 0.803219 5.21115 0.600532 5.38477 0.426921C5.55838 0.253309 5.76324 0.166504 5.99935 0.166504C6.23546 0.166504 6.44032 0.253309 6.61393 0.426921C6.78754 0.600532 6.87435 0.803219 6.87435 1.03498V5.12484H10.9642C11.196 5.12484 11.3987 5.21164 11.5723 5.38525C11.7459 5.55887 11.8327 5.76373 11.8327 5.99984C11.8327 6.23595 11.7459 6.44081 11.5723 6.61442C11.3987 6.78803 11.196 6.87484 10.9642 6.87484H6.87435V10.9647C6.87435 11.1965 6.78754 11.3991 6.61393 11.5728C6.44032 11.7464 6.23546 11.8332 5.99935 11.8332Z"
    fill="#232323"
    />
</svg>